<mxfile host="app.diagrams.net" modified="2022-01-09T23:24:06.259Z" agent="5.0 (Macintosh; Intel Mac OS X 10_15_7) AppleWebKit/537.36 (KHTML, like Gecko) Chrome/96.0.4664.110 Safari/537.36" etag="k21G6VlAA4WKODQ8lfah" version="16.2.4" type="github">
  <diagram id="OvShoNf3UoI0EV--hxH7" name="Page-1">
    <mxGraphModel dx="1426" dy="769" grid="1" gridSize="10" guides="1" tooltips="1" connect="1" arrows="1" fold="1" page="1" pageScale="1" pageWidth="850" pageHeight="1100" math="0" shadow="0">
      <root>
        <mxCell id="0" />
        <mxCell id="1" parent="0" />
        <mxCell id="CtE2y3EmNuXy912_LAuK-13" style="edgeStyle=orthogonalEdgeStyle;rounded=0;orthogonalLoop=1;jettySize=auto;html=1;" edge="1" parent="1" source="CtE2y3EmNuXy912_LAuK-1" target="CtE2y3EmNuXy912_LAuK-6">
          <mxGeometry relative="1" as="geometry" />
        </mxCell>
        <mxCell id="CtE2y3EmNuXy912_LAuK-16" style="edgeStyle=orthogonalEdgeStyle;rounded=0;orthogonalLoop=1;jettySize=auto;html=1;entryX=0.5;entryY=0;entryDx=0;entryDy=0;" edge="1" parent="1" source="CtE2y3EmNuXy912_LAuK-1" target="CtE2y3EmNuXy912_LAuK-7">
          <mxGeometry relative="1" as="geometry" />
        </mxCell>
        <mxCell id="CtE2y3EmNuXy912_LAuK-1" value="ppo.py&lt;br&gt;&amp;nbsp;(321 LOC)" style="rounded=0;whiteSpace=wrap;html=1;" vertex="1" parent="1">
          <mxGeometry x="320" y="280" width="120" height="60" as="geometry" />
        </mxCell>
        <mxCell id="CtE2y3EmNuXy912_LAuK-4" style="edgeStyle=orthogonalEdgeStyle;rounded=0;orthogonalLoop=1;jettySize=auto;html=1;entryX=0.5;entryY=0;entryDx=0;entryDy=0;" edge="1" parent="1" source="CtE2y3EmNuXy912_LAuK-2" target="CtE2y3EmNuXy912_LAuK-1">
          <mxGeometry relative="1" as="geometry" />
        </mxCell>
        <mxCell id="CtE2y3EmNuXy912_LAuK-2" value="ppo_shared.py &lt;br&gt;(315 LOC)" style="rounded=0;whiteSpace=wrap;html=1;" vertex="1" parent="1">
          <mxGeometry x="320" y="160" width="120" height="60" as="geometry" />
        </mxCell>
        <mxCell id="CtE2y3EmNuXy912_LAuK-5" value="~10 LOC change" style="text;html=1;strokeColor=none;fillColor=none;align=left;verticalAlign=middle;whiteSpace=wrap;rounded=0;" vertex="1" parent="1">
          <mxGeometry x="390" y="230" width="120" height="30" as="geometry" />
        </mxCell>
        <mxCell id="CtE2y3EmNuXy912_LAuK-18" style="edgeStyle=orthogonalEdgeStyle;rounded=0;orthogonalLoop=1;jettySize=auto;html=1;entryX=1;entryY=0.5;entryDx=0;entryDy=0;" edge="1" parent="1" source="CtE2y3EmNuXy912_LAuK-6" target="CtE2y3EmNuXy912_LAuK-11">
          <mxGeometry relative="1" as="geometry" />
        </mxCell>
        <mxCell id="CtE2y3EmNuXy912_LAuK-22" style="edgeStyle=orthogonalEdgeStyle;rounded=0;orthogonalLoop=1;jettySize=auto;html=1;entryX=0.5;entryY=0;entryDx=0;entryDy=0;" edge="1" parent="1" source="CtE2y3EmNuXy912_LAuK-6" target="CtE2y3EmNuXy912_LAuK-9">
          <mxGeometry relative="1" as="geometry" />
        </mxCell>
        <mxCell id="CtE2y3EmNuXy912_LAuK-6" value="ppo_atari.py&lt;br&gt;&amp;nbsp;(321 LOC)" style="rounded=0;whiteSpace=wrap;html=1;" vertex="1" parent="1">
          <mxGeometry x="320" y="400" width="120" height="60" as="geometry" />
        </mxCell>
        <mxCell id="CtE2y3EmNuXy912_LAuK-7" value="ppo_continuous_action.py&lt;br&gt;&amp;nbsp;(321 LOC)" style="rounded=0;whiteSpace=wrap;html=1;" vertex="1" parent="1">
          <mxGeometry x="560" y="400" width="150" height="60" as="geometry" />
        </mxCell>
        <mxCell id="CtE2y3EmNuXy912_LAuK-23" style="edgeStyle=orthogonalEdgeStyle;rounded=0;orthogonalLoop=1;jettySize=auto;html=1;entryX=0.5;entryY=0;entryDx=0;entryDy=0;" edge="1" parent="1" source="CtE2y3EmNuXy912_LAuK-9" target="CtE2y3EmNuXy912_LAuK-10">
          <mxGeometry relative="1" as="geometry" />
        </mxCell>
        <mxCell id="CtE2y3EmNuXy912_LAuK-9" value="ppo_multidiscrete.py&lt;br&gt;&amp;nbsp;(321 LOC)" style="rounded=0;whiteSpace=wrap;html=1;" vertex="1" parent="1">
          <mxGeometry x="320" y="520" width="120" height="60" as="geometry" />
        </mxCell>
        <mxCell id="CtE2y3EmNuXy912_LAuK-10" value="ppo_multidiscrete_mask.py&lt;br&gt;&amp;nbsp;(321 LOC)" style="rounded=0;whiteSpace=wrap;html=1;" vertex="1" parent="1">
          <mxGeometry x="300" y="640" width="160" height="60" as="geometry" />
        </mxCell>
        <mxCell id="CtE2y3EmNuXy912_LAuK-11" value="ppo_atari_lstm.py&lt;br&gt;&amp;nbsp;(321 LOC)" style="rounded=0;whiteSpace=wrap;html=1;" vertex="1" parent="1">
          <mxGeometry x="80" y="400" width="120" height="60" as="geometry" />
        </mxCell>
        <mxCell id="CtE2y3EmNuXy912_LAuK-12" value="ppo_atari_envpool.py&lt;br&gt;&amp;nbsp;(321 LOC)" style="rounded=0;whiteSpace=wrap;html=1;" vertex="1" parent="1">
          <mxGeometry x="80" y="520" width="120" height="60" as="geometry" />
        </mxCell>
        <mxCell id="CtE2y3EmNuXy912_LAuK-14" value="~40 LOC change" style="text;html=1;strokeColor=none;fillColor=none;align=left;verticalAlign=middle;whiteSpace=wrap;rounded=0;" vertex="1" parent="1">
          <mxGeometry x="390" y="350" width="120" height="30" as="geometry" />
        </mxCell>
        <mxCell id="CtE2y3EmNuXy912_LAuK-17" value="~25 LOC change" style="text;html=1;strokeColor=none;fillColor=none;align=left;verticalAlign=middle;whiteSpace=wrap;rounded=0;" vertex="1" parent="1">
          <mxGeometry x="530" y="340" width="120" height="30" as="geometry" />
        </mxCell>
        <mxCell id="CtE2y3EmNuXy912_LAuK-19" value="~40 LOC change" style="text;html=1;strokeColor=none;fillColor=none;align=left;verticalAlign=middle;whiteSpace=wrap;rounded=0;" vertex="1" parent="1">
          <mxGeometry x="210" y="390" width="120" height="30" as="geometry" />
        </mxCell>
        <mxCell id="CtE2y3EmNuXy912_LAuK-21" value="~36 LOC change" style="text;html=1;strokeColor=none;fillColor=none;align=left;verticalAlign=middle;whiteSpace=wrap;rounded=0;" vertex="1" parent="1">
          <mxGeometry x="400" y="470" width="120" height="30" as="geometry" />
        </mxCell>
        <mxCell id="CtE2y3EmNuXy912_LAuK-24" value="~30 LOC change" style="text;html=1;strokeColor=none;fillColor=none;align=left;verticalAlign=middle;whiteSpace=wrap;rounded=0;" vertex="1" parent="1">
          <mxGeometry x="400" y="590" width="120" height="30" as="geometry" />
        </mxCell>
      </root>
    </mxGraphModel>
  </diagram>
</mxfile>
